<?xml version="1.0" encoding="iso-8859-1"?>
<!-- Generator: Adobe Illustrator 18.0.0, SVG Export Plug-In . SVG Version: 6.00 Build 0)  -->
<!DOCTYPE svg PUBLIC "-//W3C//DTD SVG 1.1//EN" "http://www.w3.org/Graphics/SVG/1.1/DTD/svg11.dtd">
<svg version="1.1" id="Capa_1" xmlns="http://www.w3.org/2000/svg" xmlns:xlink="http://www.w3.org/1999/xlink" x="0px" y="0px"
	 viewBox="0 0 492.374 492.374" style="enable-background:new 0 0 492.374 492.374;" xml:space="preserve">
<path d="M490.486,232.479l-114.697-56.697c-1.125-0.554-2.463-0.359-3.378,0.496c-0.931,0.856-1.207,2.185-0.747,3.342
	l16.068,39.193h-137.16V94.137h41.305l-16.073,39.192c-0.47,1.158-0.178,2.486,0.737,3.341c0.909,0.856,2.263,1.05,3.387,0.497
	L394.627,80.47c1.16-0.57,1.877-1.745,1.877-3.023c0-1.28-0.717-2.453-1.877-3.023L279.928,17.725
	c-1.124-0.554-2.478-0.358-3.387,0.498c-0.915,0.856-1.207,2.184-0.737,3.341l16.073,39.192h-57.995
	c-9.21,0-16.69,7.474-16.69,16.691v62.337H117.051c-9.21,0-16.69,7.474-16.69,16.691v112.531H16.695
	C7.469,269.006,0,276.48,0,285.696c0,9.218,7.469,16.692,16.695,16.692h83.665v112.54c0,9.217,7.48,16.69,16.69,16.69h153.851
	l-16.074,39.191c-0.455,1.158-0.178,2.486,0.753,3.342c0.91,0.856,2.248,1.053,3.371,0.498l114.699-56.699
	c1.176-0.568,1.892-1.742,1.892-3.022c0-1.281-0.716-2.454-1.892-3.024l-114.699-56.697c-1.123-0.555-2.461-0.359-3.371,0.497
	c-0.931,0.856-1.208,2.184-0.753,3.342l16.074,39.191h-137.16v-225.07h83.45v62.337c0,9.217,7.48,16.69,16.69,16.69h153.851
	l-16.068,39.193c-0.46,1.156-0.184,2.485,0.747,3.34c0.915,0.855,2.253,1.052,3.378,0.497l114.697-56.697
	c1.172-0.571,1.888-1.745,1.888-3.024C492.374,234.223,491.658,233.05,490.486,232.479z"/>
<g>
</g>
<g>
</g>
<g>
</g>
<g>
</g>
<g>
</g>
<g>
</g>
<g>
</g>
<g>
</g>
<g>
</g>
<g>
</g>
<g>
</g>
<g>
</g>
<g>
</g>
<g>
</g>
<g>
</g>
</svg>
