<?xml version="1.0" encoding="iso-8859-1"?>
<!-- Generator: Adobe Illustrator 18.0.0, SVG Export Plug-In . SVG Version: 6.00 Build 0)  -->
<!DOCTYPE svg PUBLIC "-//W3C//DTD SVG 1.1//EN" "http://www.w3.org/Graphics/SVG/1.1/DTD/svg11.dtd">
<svg version="1.1" id="Capa_1" xmlns="http://www.w3.org/2000/svg" xmlns:xlink="http://www.w3.org/1999/xlink" x="0px" y="0px"
	 viewBox="0 0 492.981 492.981" style="enable-background:new 0 0 492.981 492.981;" xml:space="preserve">
<g>
	<path d="M160.215,142.729h122.867c5.492,0,9.937-4.45,9.937-9.933V9.931c0-5.482-4.444-9.931-9.937-9.931H160.215
		c-5.487,0-9.938,4.449-9.938,9.931v122.865C150.277,138.279,154.728,142.729,160.215,142.729z M183.057,32.782h77.182v77.166
		h-77.182V32.782z"/>
	<path d="M160.215,317.855h122.867c5.492,0,9.937-4.451,9.937-9.933V185.057c0-5.482-4.444-9.932-9.937-9.932H160.215
		c-5.487,0-9.938,4.449-9.938,9.932v122.865C150.277,313.404,154.728,317.855,160.215,317.855z M183.057,207.907h77.182v77.167
		h-77.182V207.907z"/>
	<path d="M252.396,482.76c-8.388,0-16.79-3.201-23.176-9.603l-12.967-12.958h-33.196v-77.166h77.182v12.741L293.019,363v-2.818
		c0-5.482-4.444-9.932-9.937-9.932H160.215c-5.487,0-9.938,4.449-9.938,9.932v122.865c0,5.482,4.45,9.934,9.938,9.934h122.867
		c5.492,0,9.937-4.451,9.937-9.934v-27.338l-17.442,17.447C269.171,479.559,260.783,482.76,252.396,482.76z"/>
	<path d="M337.902,364.457c-6.4-6.403-16.775-6.403-23.175,0l-62.332,62.344l-19.157-19.151c-6.406-6.402-16.774-6.402-23.176,0
		c-6.406,6.402-6.406,16.774,0,23.177l30.747,30.74c3.198,3.201,7.392,4.803,11.586,4.803c4.193,0,8.388-1.602,11.59-4.803
		l73.917-73.933C344.304,381.231,344.304,370.859,337.902,364.457z"/>
</g>
<g>
</g>
<g>
</g>
<g>
</g>
<g>
</g>
<g>
</g>
<g>
</g>
<g>
</g>
<g>
</g>
<g>
</g>
<g>
</g>
<g>
</g>
<g>
</g>
<g>
</g>
<g>
</g>
<g>
</g>
</svg>
