<?xml version="1.0" encoding="iso-8859-1"?>
<!-- Generator: Adobe Illustrator 18.0.0, SVG Export Plug-In . SVG Version: 6.00 Build 0)  -->
<!DOCTYPE svg PUBLIC "-//W3C//DTD SVG 1.1//EN" "http://www.w3.org/Graphics/SVG/1.1/DTD/svg11.dtd">
<svg version="1.1" id="Capa_1" xmlns="http://www.w3.org/2000/svg" xmlns:xlink="http://www.w3.org/1999/xlink" x="0px" y="0px"
	 viewBox="0 0 493.977 493.977" style="enable-background:new 0 0 493.977 493.977;" xml:space="preserve">
<g>
	<path d="M405.737,350.253l-14.157-28.633c-24.475,47.235-71.322,81.033-126.492,87.168l13.547-32.391
		c0.467-1.135,0.195-2.447-0.703-3.287c-0.912-0.848-2.241-1.048-3.344-0.497c-29.767,14.715-97.828,48.362-116.254,57.472
		c-1.169,0.576-1.902,1.768-1.902,3.064s0.733,2.487,1.902,3.064c92.883,45.906,68.395,33.798,116.254,57.455
		c1.103,0.552,2.432,0.352,3.344-0.488c0.898-0.848,1.17-2.159,0.689-3.295l-13.307-31.823
		c65.514-5.647,122.648-41.084,157.535-92.814C415.478,362.576,409.159,357.339,405.737,350.253z"/>
	<path d="M88.243,143.727l14.168,28.633c24.474-47.22,71.327-81.018,126.478-87.151l-13.533,32.374
		c-0.463,1.136-0.189,2.447,0.709,3.295c0.906,0.84,2.236,1.04,3.338,0.488c97.412-48.17,16.893-8.342,116.26-57.473
		c1.164-0.576,1.902-1.767,1.902-3.054c0-0.008,0-0.008,0-0.008c0-1.297-0.738-2.488-1.902-3.064
		c-92.057-45.506-67.886-33.55-116.26-57.463c-1.102-0.543-2.432-0.344-3.338,0.496c-0.898,0.848-1.172,2.159-0.709,3.295
		l13.312,31.83C163.167,41.581,106.042,77.017,71.14,128.74C78.499,131.41,84.817,136.641,88.243,143.727z"/>
	<path d="M84.913,262.39l32.682,13.66c1.134,0.48,2.461,0.193,3.293-0.704c0.846-0.895,1.041-2.224,0.498-3.327
		c-36.887-74.603-21.387-43.244-57.488-116.263v-0.017c-0.58-1.16-1.76-1.896-3.058-1.896c-1.294,0-2.478,0.736-3.052,1.896
		c-48.26,97.646-34.168,69.133-57.473,116.28c-0.544,1.103-0.354,2.432,0.492,3.327c0.832,0.896,2.16,1.184,3.299,0.704
		l31.686-13.252c5.005,67.389,41.509,126.076,94.949,161.274c2.491-7.901,8.042-14.676,15.548-18.33l27.366-13.541
		C124.98,367.52,90.274,319.213,84.913,262.39z"/>
	<path d="M145.551,247.002c0,56.008,45.429,101.427,101.442,101.427c56.018,0,101.431-45.419,101.431-101.427
		c0-56.025-45.413-101.443-101.431-101.443C190.98,145.565,145.551,190.977,145.551,247.002z"/>
	<path d="M493.167,218.634c-0.832-0.895-2.145-1.176-3.294-0.704l-31.691,13.252c-5.007-67.38-41.503-126.069-94.944-161.267
		c-2.484,7.894-8.033,14.668-15.533,18.323l-27.387,13.541c48.675,24.68,83.388,72.979,88.744,129.803l-32.661-13.652
		c-1.154-0.48-2.462-0.201-3.294,0.704c-0.852,0.896-1.041,2.224-0.498,3.327c47.732,96.565,2.401,4.808,57.488,116.263
		c0.287,0.576,0.719,1.057,1.246,1.383c0.543,0.336,1.156,0.521,1.806,0.521c1.298,0,2.483-0.744,3.058-1.904
		c46.289-93.685,33.605-68.013,57.457-116.263C494.207,220.857,494.012,219.53,493.167,218.634z"/>
</g>
<g>
</g>
<g>
</g>
<g>
</g>
<g>
</g>
<g>
</g>
<g>
</g>
<g>
</g>
<g>
</g>
<g>
</g>
<g>
</g>
<g>
</g>
<g>
</g>
<g>
</g>
<g>
</g>
<g>
</g>
</svg>
