<?xml version="1.0" encoding="iso-8859-1"?>
<!-- Generator: Adobe Illustrator 18.0.0, SVG Export Plug-In . SVG Version: 6.00 Build 0)  -->
<!DOCTYPE svg PUBLIC "-//W3C//DTD SVG 1.1//EN" "http://www.w3.org/Graphics/SVG/1.1/DTD/svg11.dtd">
<svg version="1.1" id="Capa_1" xmlns="http://www.w3.org/2000/svg" xmlns:xlink="http://www.w3.org/1999/xlink" x="0px" y="0px"
	 viewBox="0 0 489.158 489.158" style="enable-background:new 0 0 489.158 489.158;" xml:space="preserve">
<g>
	<path d="M251.269,418.408h-70.082l10.204,10.191c6.5,6.498,10.616,14.4,12.734,22.705h67.322l-6.537-6.537
		C257.456,437.314,252.959,428.062,251.269,418.408z"/>
	<path d="M107.025,311.356V33.888h273.536V356.06l32.895-32.912V17.439c0-9.084-7.355-16.449-16.447-16.449H90.575
		c-9.09,0-16.447,7.365-16.447,16.449v293.91l16.447,16.457L107.025,311.356z"/>
	<path d="M162.782,102.323h96.23c9.093,0,16.448-7.365,16.448-16.448c0-9.084-7.355-16.447-16.448-16.447h-96.23
		c-9.092,0-16.448,7.363-16.448,16.447C146.334,94.958,153.69,102.323,162.782,102.323z"/>
	<path d="M324.808,135.22H162.782c-9.092,0-16.448,7.365-16.448,16.447c0,9.084,7.356,16.449,16.448,16.449h162.026
		c9.093,0,16.448-7.365,16.448-16.449C341.256,142.586,333.901,135.22,324.808,135.22z"/>
	<path d="M324.808,201.013H162.782c-9.092,0-16.448,7.365-16.448,16.449c0,9.082,7.356,16.447,16.448,16.447h162.026
		c9.093,0,16.448-7.365,16.448-16.447C341.256,208.379,333.901,201.013,324.808,201.013z"/>
	<path d="M324.808,266.807h-96.235c-9.092,0-16.447,7.364-16.447,16.448c0,9.083,7.355,16.447,16.447,16.447h96.235
		c9.093,0,16.448-7.364,16.448-16.447C341.256,274.172,333.901,266.807,324.808,266.807z"/>
	<path d="M481.93,324.449c-9.637-9.621-25.25-9.631-34.883,0.008l-98.868,98.891l-30.939-30.921c-9.637-9.638-25.252-9.638-34.889,0
		c-9.639,9.637-9.639,25.259,0,34.888l48.379,48.373c4.628,4.627,10.91,7.228,17.448,7.228c6.554,0,12.815-2.602,17.442-7.228
		L481.93,359.345C491.568,349.708,491.568,334.086,481.93,324.449z"/>
	<path d="M125.465,397.582c22.007-22.014,11.456-11.46,48.463-48.461c9.637-9.637,9.637-25.258,0-34.889
		c-9.638-9.638-25.251-9.638-34.889,0c-37.219,37.209-26.633,26.632-48.465,48.461l-48.457-48.461
		c-9.637-9.638-25.25-9.638-34.889,0c-9.639,9.639-9.639,25.259,0,34.889l48.464,48.461c-22.074,22.08-11.474,11.486-48.464,48.471
		c-9.639,9.637-9.639,25.258,0,34.889c9.639,9.637,25.252,9.637,34.889,0c36.99-36.986,26.404-26.408,48.457-48.471l48.479,48.471
		c9.639,9.637,25.253,9.637,34.891,0c9.639-9.639,9.639-25.26,0-34.889L125.465,397.582z"/>
</g>
<g>
</g>
<g>
</g>
<g>
</g>
<g>
</g>
<g>
</g>
<g>
</g>
<g>
</g>
<g>
</g>
<g>
</g>
<g>
</g>
<g>
</g>
<g>
</g>
<g>
</g>
<g>
</g>
<g>
</g>
</svg>
