<?xml version="1.0" encoding="iso-8859-1"?>
<!-- Generator: Adobe Illustrator 18.0.0, SVG Export Plug-In . SVG Version: 6.00 Build 0)  -->
<!DOCTYPE svg PUBLIC "-//W3C//DTD SVG 1.1//EN" "http://www.w3.org/Graphics/SVG/1.1/DTD/svg11.dtd">
<svg version="1.1" id="Capa_1" xmlns="http://www.w3.org/2000/svg" xmlns:xlink="http://www.w3.org/1999/xlink" x="0px" y="0px"
	 viewBox="0 0 494.823 494.823" style="enable-background:new 0 0 494.823 494.823;" xml:space="preserve">
<g>
	<path d="M322.986,417.715c0-1.127-0.646-2.166-1.658-2.664l-100.692-49.757c-1.095-0.548-2.396-0.363-3.316,0.458
		c-0.904,0.821-1.208,2.11-0.774,3.254l12.18,32.216h-44.042V350.62c0-5.517-4.474-9.995-9.985-9.995H40.492
		c-5.507,0-9.985,4.478-9.985,9.995v134.209c0,5.517,4.478,9.994,9.985,9.994h134.206c5.512,0,9.985-4.477,9.985-9.994v-50.619
		h44.057l-12.195,32.225c-0.418,1.143-0.109,2.432,0.79,3.252c0.919,0.822,2.226,1.008,3.321,0.461l100.672-49.766
		C322.341,419.883,322.986,418.851,322.986,417.715z M154.63,464.75H60.56v-94.052h94.07V464.75z"/>
	<path d="M91.099,204.735v40.88l-32.212-12.193c-1.162-0.434-2.448-0.12-3.254,0.781c-0.837,0.911-1.013,2.222-0.465,3.319
		l49.755,100.679c0.501,1.015,1.544,1.66,2.676,1.66c1.126,0,2.154-0.645,2.655-1.66l49.755-100.679
		c0.547-1.097,0.372-2.408-0.45-3.319c-0.821-0.901-2.108-1.215-3.254-0.781l-32.212,12.186v-40.872
		c49.063-7.909,86.59-50.344,86.59-101.647C210.682,46.155,164.517,0,107.598,0C50.673,0,4.508,46.155,4.508,103.088
		C4.508,154.391,42.036,196.826,91.099,204.735z"/>
	<path d="M488.553,479.158l-90.024-130.881c-1.865-2.714-4.929-4.332-8.229-4.332c-3.301,0-6.364,1.618-8.233,4.332l-90.042,130.881
		c-2.092,3.061-2.335,7.032-0.61,10.317c1.741,3.294,5.14,5.348,8.859,5.348h180.051c3.704,0,7.118-2.054,8.843-5.341
		C490.888,486.198,490.665,482.219,488.553,479.158z M338.447,464.75l51.852-75.382l51.852,75.382H338.447z"/>
</g>
<g>
</g>
<g>
</g>
<g>
</g>
<g>
</g>
<g>
</g>
<g>
</g>
<g>
</g>
<g>
</g>
<g>
</g>
<g>
</g>
<g>
</g>
<g>
</g>
<g>
</g>
<g>
</g>
<g>
</g>
</svg>
