<?xml version="1.0" encoding="iso-8859-1"?>
<!-- Generator: Adobe Illustrator 18.0.0, SVG Export Plug-In . SVG Version: 6.00 Build 0)  -->
<!DOCTYPE svg PUBLIC "-//W3C//DTD SVG 1.1//EN" "http://www.w3.org/Graphics/SVG/1.1/DTD/svg11.dtd">
<svg version="1.1" id="Capa_1" xmlns="http://www.w3.org/2000/svg" xmlns:xlink="http://www.w3.org/1999/xlink" x="0px" y="0px"
	 viewBox="0 0 493.17 493.17" style="enable-background:new 0 0 493.17 493.17;" xml:space="preserve">
<g>
	<path d="M219.45,342.048l-23.158,46.337l-30.929-24.601l-30.96,24.601l-23.159-46.337c-38.423,6.903-67.602,40.323-67.602,80.704
		v53.813c0,9.168,7.427,16.605,16.604,16.605h94.212l-8.517-85.381l19.405-19.404l19.423,19.404l-8.496,85.381h94.175
		c9.177,0,16.604-7.438,16.604-16.605v-53.813C287.053,382.371,257.858,348.951,219.45,342.048z"/>
	<path d="M196.23,331.949v-9.16c14.678-13.473,26.603-29.747,34.178-48.65c6.539-0.105,13.821-6.053,17.693-15.545
		c4.629-11.377,2.522-22.989-4.729-25.935c-1.375-0.56-2.896-0.462-4.402-0.349c0.032-1.264,0.214-2.451,0.214-3.73
		c0-54.299-33.052-81.715-73.805-81.715c-40.832,0-73.898,27.416-73.898,81.715c0,1.279,0.182,2.467,0.212,3.73
		c-1.489-0.113-2.995-0.211-4.37,0.349c-7.251,2.945-9.352,14.558-4.723,25.935c3.867,9.484,11.148,15.433,17.688,15.545
		c7.588,18.912,19.515,35.178,34.161,48.65v9.152c0,0.744-0.238,1.407-0.42,2.088l31.333,29.755l31.286-29.724
		C196.474,333.365,196.23,332.701,196.23,331.949z"/>
	<path d="M359.057,0c-49.863,0-90.434,40.582-90.434,90.463c0,25.361,10.354,48.844,29.193,66.138
		c8.933,8.206,15.587,18.579,19.339,30.014h4.126h22.013l-2.201-6.903c-5.034-15.813-14.174-30.135-26.459-41.415
		c-13.645-12.526-21.155-29.513-21.155-47.833c0-36.172,29.423-65.604,65.578-65.604c36.175,0,65.614,29.432,65.614,65.604
		c0,18.329-7.51,35.314-21.155,47.833c-12.302,11.272-21.477,25.603-26.507,41.44l-2.185,6.878h22.074h4.064
		c3.753-11.434,10.422-21.808,19.354-29.999c18.84-17.283,29.211-40.783,29.211-66.152C449.527,40.582,408.939,0,359.057,0z"/>
	<path d="M321.281,213.027c0,16.564,10.734,30.49,25.558,35.597c0.488,6.426,5.714,11.531,12.254,11.531
		c6.533,0,11.766-5.105,12.249-11.531c14.828-5.106,25.557-19.032,25.557-35.597v-9.841h-75.617V213.027z"/>
	<path d="M383.076,85.576l14.892,14.905c3.233,3.235,8.48,3.235,11.714,0c3.238-3.229,3.238-8.48,0-11.718l-20.745-20.766
		c-1.558-1.553-3.659-2.427-5.86-2.427c-2.2,0-4.308,0.874-5.859,2.427L359.445,85.77l-17.771-17.771
		c-3.234-3.235-8.48-3.235-11.715,0l-21.493,21.478c-3.238,3.228-3.238,8.48,0,11.717c3.233,3.237,8.481,3.237,11.716,0
		l15.637-15.616l17.767,17.769c1.619,1.62,3.741,2.429,5.859,2.429c2.123,0,4.24-0.809,5.859-2.429L383.076,85.576z"/>
</g>
<g>
</g>
<g>
</g>
<g>
</g>
<g>
</g>
<g>
</g>
<g>
</g>
<g>
</g>
<g>
</g>
<g>
</g>
<g>
</g>
<g>
</g>
<g>
</g>
<g>
</g>
<g>
</g>
<g>
</g>
</svg>
