<?xml version="1.0" encoding="iso-8859-1"?>
<!-- Generator: Adobe Illustrator 18.0.0, SVG Export Plug-In . SVG Version: 6.00 Build 0)  -->
<!DOCTYPE svg PUBLIC "-//W3C//DTD SVG 1.1//EN" "http://www.w3.org/Graphics/SVG/1.1/DTD/svg11.dtd">
<svg version="1.1" id="Capa_1" xmlns="http://www.w3.org/2000/svg" xmlns:xlink="http://www.w3.org/1999/xlink" x="0px" y="0px"
	 viewBox="0 0 492.518 492.518" style="enable-background:new 0 0 492.518 492.518;" xml:space="preserve">
<g>
	<path d="M263.644,104.149c0.914,0.817,2.209,1.001,3.299,0.456l100.136-49.499c1.013-0.496,1.655-1.522,1.655-2.651
		c0-1.123-0.643-2.156-1.655-2.653L266.927,0.31c-1.09-0.544-2.385-0.36-3.299,0.457c-0.899,0.817-1.202,2.099-0.771,3.236
		l12.117,32.044h-96.393c-9.068,0-16.405,7.346-16.405,16.407v177.395h-33.388c-7.321-28.175-32.688-49.068-63.157-49.068
		c-36.146,0-65.47,29.312-65.47,65.474c0,36.161,29.323,65.474,65.47,65.474c30.469,0,55.836-20.893,63.157-49.068h33.388v177.396
		c0,9.061,7.337,16.406,16.405,16.406h96.407l-12.132,32.053c-0.416,1.137-0.112,2.418,0.787,3.235
		c0.914,0.817,2.209,1.002,3.299,0.458l100.136-49.502c1.013-0.495,1.655-1.521,1.655-2.65c0-1.122-0.643-2.154-1.655-2.652
		l-100.151-49.491c-1.09-0.544-2.385-0.361-3.299,0.456c-0.899,0.817-1.202,2.099-0.771,3.237l12.117,32.044h-79.986V68.86h80.001
		l-12.132,32.052C262.44,102.05,262.744,103.332,263.644,104.149z"/>
	<path d="M482.424,1.184h-82.677c-5.479,0-9.933,4.455-9.933,9.942v82.657c0,5.487,4.454,9.941,9.933,9.941h82.677
		c5.478,0,9.933-4.454,9.933-9.941V11.126C492.357,5.639,487.901,1.184,482.424,1.184z"/>
	<path d="M482.424,388.786h-82.677c-5.479,0-9.933,4.453-9.933,9.941v82.656c0,5.487,4.454,9.941,9.933,9.941h82.677
		c5.478,0,9.933-4.454,9.933-9.941v-82.656C492.357,393.239,487.901,388.786,482.424,388.786z"/>
</g>
<g>
</g>
<g>
</g>
<g>
</g>
<g>
</g>
<g>
</g>
<g>
</g>
<g>
</g>
<g>
</g>
<g>
</g>
<g>
</g>
<g>
</g>
<g>
</g>
<g>
</g>
<g>
</g>
<g>
</g>
</svg>
