<?xml version="1.0" encoding="iso-8859-1"?>
<!-- Generator: Adobe Illustrator 18.0.0, SVG Export Plug-In . SVG Version: 6.00 Build 0)  -->
<!DOCTYPE svg PUBLIC "-//W3C//DTD SVG 1.1//EN" "http://www.w3.org/Graphics/SVG/1.1/DTD/svg11.dtd">
<svg version="1.1" id="Capa_1" xmlns="http://www.w3.org/2000/svg" xmlns:xlink="http://www.w3.org/1999/xlink" x="0px" y="0px"
	 viewBox="0 0 491.139 491.139" style="enable-background:new 0 0 491.139 491.139;" xml:space="preserve">
<g>
	<path d="M70.655,0C56.631,0,45.249,11.371,45.249,25.404v440.33c0,14.033,11.382,25.404,25.406,25.404
		c14.024,0,25.406-11.371,25.406-25.404V25.404C96.06,11.371,84.678,0,70.655,0z"/>
	<path d="M435.218,19.227c-103.68-35.46-207.345,43.58-311.026,8.121c-5.908-2.01-10.67,0.703-10.67,6.606
		c0,63.452,0,126.912,0,190.364c0,5.888,4.763,12.718,10.67,14.728c103.681,35.459,207.346-43.581,311.026-8.12
		c5.909,2.009,10.672-0.704,10.672-6.607c0-63.452,0-126.912,0-190.364C445.89,28.066,441.127,21.236,435.218,19.227z
		 M279.708,214.989c-14.952,3.176-27.06-6.559-27.06-21.519c0-14.925,12.108-29.406,27.06-32.58
		c14.946-3.176,27.055,6.558,27.055,21.517C306.763,197.334,294.654,211.814,279.708,214.989z M253.507,54.629
		c2.037-2.763,4.997-4.723,8.121-5.36c12.056-2.438,24.101-5.067,36.156-7.507c3.124-0.637,6.084,0.147,8.12,2.133
		c2.016,1.977,2.913,4.962,2.414,8.128c-4.731,30.474-9.463,60.997-14.188,91.535c-4.551-0.661-9.346-0.703-14.421,0.396
		c-5.065,1.102-9.86,3.136-14.406,5.642c-4.731-28.597-9.478-57.226-14.209-85.896C250.594,60.715,251.491,57.398,253.507,54.629z"
		/>
</g>
<g>
</g>
<g>
</g>
<g>
</g>
<g>
</g>
<g>
</g>
<g>
</g>
<g>
</g>
<g>
</g>
<g>
</g>
<g>
</g>
<g>
</g>
<g>
</g>
<g>
</g>
<g>
</g>
<g>
</g>
</svg>
