<?xml version="1.0" encoding="iso-8859-1"?>
<!-- Generator: Adobe Illustrator 18.0.0, SVG Export Plug-In . SVG Version: 6.00 Build 0)  -->
<!DOCTYPE svg PUBLIC "-//W3C//DTD SVG 1.1//EN" "http://www.w3.org/Graphics/SVG/1.1/DTD/svg11.dtd">
<svg version="1.1" id="Capa_1" xmlns="http://www.w3.org/2000/svg" xmlns:xlink="http://www.w3.org/1999/xlink" x="0px" y="0px"
	 viewBox="0 0 490.232 490.232" style="enable-background:new 0 0 490.232 490.232;" xml:space="preserve">
<g>
	<path d="M469.689,348.547h-83.742c-3.449,0-6.235,2.793-6.235,6.238v83.746c0,3.445,2.786,6.238,6.235,6.238h83.742
		c3.434,0,6.234-2.793,6.234-6.238v-83.746C475.923,351.34,473.122,348.547,469.689,348.547z"/>
	<path d="M489.129,129.846l-56.164-81.678c-1.163-1.687-3.087-2.706-5.143-2.706c-2.051,0-3.975,1.02-5.138,2.706l-56.179,81.678
		c-1.321,1.901-1.465,4.383-0.383,6.436c1.082,2.053,3.199,3.333,5.52,3.333h112.362c2.306,0,4.438-1.28,5.506-3.333
		C490.593,134.229,490.45,131.756,489.129,129.846z"/>
	<path d="M278.182,133.108c0.704,0.645,1.735,0.787,2.598,0.366l78.583-38.846c0.796-0.398,1.286-1.202,1.286-2.085
		s-0.49-1.687-1.286-2.085l-78.599-38.837c-0.862-0.423-1.878-0.28-2.582,0.364c-0.714,0.637-0.954,1.646-0.617,2.539l8.226,21.727
		h-74.338c-9.001,0-16.293,7.295-16.293,16.292V228.31h-26.471c-6.113-20.731-23.391-36.658-44.999-40.549l-16.308,32.594
		L85.63,203.052l-21.783,17.304L47.54,187.762C20.522,192.623,0,216.131,0,244.531v37.853c0,6.45,5.235,11.678,11.68,11.678h66.281
		l-5.995-60.057l13.649-13.65l13.669,13.65l-5.985,60.057h66.255c6.445,0,11.681-5.228,11.681-11.678v-21.488h23.925v135.767
		c0,8.997,7.292,16.292,16.293,16.292h74.338l-8.211,21.734c-0.336,0.892-0.096,1.902,0.603,2.538
		c0.72,0.645,1.751,0.787,2.598,0.366l78.583-38.847c0.775-0.397,1.271-1.202,1.271-2.084c0-0.884-0.496-1.687-1.271-2.085
		l-78.599-38.838c-0.862-0.422-1.878-0.278-2.582,0.365c-0.714,0.637-0.954,1.648-0.617,2.539l8.226,21.725h-58.041V108.836h58.041
		l-8.211,21.736C277.228,131.462,277.483,132.465,278.182,133.108z"/>
	<path d="M107.336,180.657v-1.805c10.322-9.476,18.71-20.915,24.037-34.216c4.598-0.081,9.726-4.266,12.461-10.939
		c3.245-7.994,1.75-16.166-3.342-18.234c-0.971-0.396-2.036-0.325-3.087-0.246c0.03-0.891,0.157-1.734,0.157-2.633
		c0-38.186-23.262-57.471-51.917-57.471c-28.717,0-51.979,19.285-51.979,57.471c0,0.898,0.128,1.742,0.144,2.633
		c-1.052-0.079-2.118-0.15-3.072,0.246c-5.087,2.068-6.587,10.24-3.337,18.234c2.735,6.682,7.857,10.866,12.455,10.939
		c5.332,13.301,13.73,24.74,24.043,34.216v1.797c0,0.526-0.193,0.995-0.301,1.48l22.032,20.923l22.007-20.915
		C107.524,181.652,107.336,181.182,107.336,180.657z"/>
</g>
<g>
</g>
<g>
</g>
<g>
</g>
<g>
</g>
<g>
</g>
<g>
</g>
<g>
</g>
<g>
</g>
<g>
</g>
<g>
</g>
<g>
</g>
<g>
</g>
<g>
</g>
<g>
</g>
<g>
</g>
</svg>
