<?xml version="1.0" encoding="iso-8859-1"?>
<!-- Generator: Adobe Illustrator 18.0.0, SVG Export Plug-In . SVG Version: 6.00 Build 0)  -->
<!DOCTYPE svg PUBLIC "-//W3C//DTD SVG 1.1//EN" "http://www.w3.org/Graphics/SVG/1.1/DTD/svg11.dtd">
<svg version="1.1" id="Capa_1" xmlns="http://www.w3.org/2000/svg" xmlns:xlink="http://www.w3.org/1999/xlink" x="0px" y="0px"
	 viewBox="0 0 494.156 494.156" style="enable-background:new 0 0 494.156 494.156;" xml:space="preserve">
<g>
	<path d="M247.444,386.418c19.605-19.623,51.449-19.614,71.057,0.01l11.589,11.588l20.757-20.746v-4.113
		c0-53.942-38.969-98.726-90.266-107.953l-31.009,62.028l-41.325-32.859l-41.358,32.859l-31.003-62.028
		C64.55,274.431,25.63,319.214,25.63,373.156v71.899c0,12.25,9.944,22.181,22.183,22.181h125.86l-11.381-114.081l25.938-25.924
		l25.942,25.924l-11.33,114.081h54.336l-9.752-9.75C227.805,437.854,227.805,406.033,247.444,386.418z"/>
	<path d="M229.5,251.846v-16.807c19.506-17.906,35.369-39.512,45.483-64.604c8.771-0.078,18.608-8.438,23.811-21.168
		c6.177-15.195,3.363-30.705-6.321-34.637c-1.856-0.756-3.842-0.893-5.853-0.739c0.034-1.595,0.26-3.106,0.26-4.721
		C286.881,36.628,242.725,0,188.285,0c-54.546,0-98.734,36.628-98.734,109.171c0,1.614,0.221,3.126,0.253,4.721
		c-2.009-0.153-3.979-0.017-5.819,0.739c-9.678,3.932-12.498,19.441-6.314,34.637c5.203,12.738,15.035,21.099,23.813,21.168
		c10.146,25.092,26.025,46.705,45.477,64.604v16.791c0,0.994-0.324,1.88-0.568,2.799l41.855,39.743l41.822-39.728
		C229.83,253.727,229.5,252.842,229.5,251.846z"/>
	<path d="M461.184,338.014c-9.781-9.803-25.645-9.795-35.467-0.009l-95.645,95.617l-29.373-29.393
		c-9.789-9.803-25.65-9.793-35.467-0.008c-9.789,9.795-9.789,25.666,0,35.46l47.108,47.128c4.701,4.703,11.07,7.347,17.732,7.347
		c6.646,0,13.033-2.644,17.734-7.338l113.377-113.345C470.974,363.679,470.974,347.808,461.184,338.014z"/>
</g>
<g>
</g>
<g>
</g>
<g>
</g>
<g>
</g>
<g>
</g>
<g>
</g>
<g>
</g>
<g>
</g>
<g>
</g>
<g>
</g>
<g>
</g>
<g>
</g>
<g>
</g>
<g>
</g>
<g>
</g>
</svg>
