<?xml version="1.0" encoding="iso-8859-1"?>
<!-- Generator: Adobe Illustrator 18.0.0, SVG Export Plug-In . SVG Version: 6.00 Build 0)  -->
<!DOCTYPE svg PUBLIC "-//W3C//DTD SVG 1.1//EN" "http://www.w3.org/Graphics/SVG/1.1/DTD/svg11.dtd">
<svg version="1.1" id="Capa_1" xmlns="http://www.w3.org/2000/svg" xmlns:xlink="http://www.w3.org/1999/xlink" x="0px" y="0px"
	 viewBox="0 0 490.669 490.669" style="enable-background:new 0 0 490.669 490.669;" xml:space="preserve">
<g>
	<path d="M246.755,442.966c-45.206-1.973-87.678-18.665-121.907-47.97l50.343-20.661c1.318-0.544,2.176-1.851,2.129-3.288
		c-0.051-1.436-0.973-2.694-2.337-3.149c-1.134-0.389-141.774-47.962-143.092-48.408c-0.987-0.324-3.019-0.114-4.085,0.95
		c-1.072,1.071-1.447,2.653-0.957,4.089c34.586,102.181,28.236,83.442,48.427,143.074c0.472,1.361,1.724,2.288,3.148,2.337
		c1.448,0.048,2.759-0.805,3.296-2.137l20.06-48.909c40.514,35.284,91.134,55.313,145.037,57.319c0-0.244-0.063-0.464-0.063-0.707
		V442.966z"/>
	<path d="M469.436,193.891l-19.575-6.614c4.886,17.514,7.567,35.748,7.567,54.431c0,6.88-0.357,13.713-1.041,20.474
		c0.129,0.877,0.422,1.671,0.535,2.565c9.947,12.87,12.432,31.747,5.081,49.82c-4.153,10.2-10.872,18.543-19.024,24.175
		c-1.963,3.653-4.105,7.215-6.428,10.671c7.5,3.254,14.397,7.58,20.747,12.587c21.587-36.033,33.354-77.21,33.37-120.292
		c0-15.777-1.563-31.317-4.58-46.445c-1.719,0.252-3.457,0.512-5.227,0.512C476.854,195.775,472.893,195.1,469.436,193.891z"/>
	<path d="M42.036,289.523l19.654,6.646c-8.553-30.701-9.802-63.008-3.586-94.162H24.442c-4.851,28.518-4.559,57.732,1.119,86.128
		c1.671-0.236,3.326-0.496,5.049-0.496C34.587,287.639,38.497,288.304,42.036,289.523z"/>
	<path d="M336.265,109.07c-1.332,0.544-2.176,1.851-2.127,3.288c0.052,1.437,0.975,2.694,2.336,3.149
		c1.623,0.552,143.023,48.659,144.73,48.504c3.084-0.284,4.07-3.213,3.41-5.121c-40.641-120.081-28.991-85.631-48.432-143.088
		c-0.475-1.364-1.724-2.288-3.149-2.337c-1.447-0.048-2.759,0.804-3.296,2.133l-20.076,48.927
		c-42.736-37.225-96.703-57.74-153.934-57.74c-6.766,0-13.47,0.415-20.143,0.982c9.416,7.855,15.553,19.388,16.09,32.454
		c1.357-0.025,2.689-0.196,4.053-0.196c48.533,0,94.385,17.156,130.851,48.391L336.265,109.07z"/>
	<path d="M218.611,157.203V42.014c0-6.387-5.179-11.565-11.561-11.565H98.813V14.437c0-6.386-5.18-11.564-11.557-11.564H11.556
		C5.179,2.873,0,8.051,0,14.437c0,120.459,0,95.951,0,142.766c0,6.386,5.179,11.564,11.556,11.564H207.05
		C213.433,168.767,218.611,163.589,218.611,157.203z"/>
	<path d="M399.241,374.936c-3.539,0-6.397-2.856-6.397-6.388V349.51c10.873-9.957,19.67-21.984,25.287-35.975
		c4.834-0.082,10.227-4.48,13.084-11.499c3.424-8.416,1.849-16.994-3.492-19.168c-0.613-0.26-1.266-0.333-1.932-0.333
		c-0.438,0-0.875,0.032-1.316,0.066c0.021-0.942,0.15-1.819,0.15-2.767c0-40.156-24.463-60.435-54.6-60.435
		c-30.173,0-54.645,20.28-54.645,60.435c0,0.948,0.129,1.825,0.142,2.767c-0.435-0.034-0.862-0.066-1.3-0.066
		c-0.666,0-1.311,0.074-1.931,0.333c-5.34,2.174-6.912,10.752-3.487,19.168c2.857,7.019,8.244,11.418,13.095,11.499
		c5.617,13.991,14.428,26.018,25.271,35.975v19.031c0,3.539-2.858,6.395-6.375,6.395c-33.615,0-60.801,27.21-60.801,60.775v39.797
		c0,6.793,5.5,12.287,12.268,12.287h155.492c6.765,0,12.266-5.494,12.266-12.287v-39.797
		C460.021,402.146,432.804,374.936,399.241,374.936z"/>
</g>
<g>
</g>
<g>
</g>
<g>
</g>
<g>
</g>
<g>
</g>
<g>
</g>
<g>
</g>
<g>
</g>
<g>
</g>
<g>
</g>
<g>
</g>
<g>
</g>
<g>
</g>
<g>
</g>
<g>
</g>
</svg>
